<svg xmlns="http://www.w3.org/2000/svg" width="298.24" height="48" viewBox="0 0 298.24 48">
  <g id="GROWI_logo-horizontal" transform="translate(11.938 -15.554)">
    <path d="M16.714-10.863a18.936,18.936,0,0,0,2.124-.11,13.5,13.5,0,0,0,1.825-.329,12.429,12.429,0,0,0,1.615-.529q.758-.309,1.516-.708v-6.3H19.367a.843.843,0,0,1-.608-.219.716.716,0,0,1-.229-.538v-2.194H27.3v10.969a15.856,15.856,0,0,1-2.244,1.356,15.282,15.282,0,0,1-2.493.967,18.051,18.051,0,0,1-2.842.578,26.61,26.61,0,0,1-3.291.189,14.848,14.848,0,0,1-5.7-1.067A13.135,13.135,0,0,1,6.264-11.79a13.582,13.582,0,0,1-2.922-4.617A16.211,16.211,0,0,1,2.3-22.331a16.609,16.609,0,0,1,1.027-5.963,13.119,13.119,0,0,1,2.932-4.617,13.1,13.1,0,0,1,4.607-2.982,16.5,16.5,0,0,1,6.053-1.057,18.694,18.694,0,0,1,3.151.249,14.73,14.73,0,0,1,2.7.718,12.589,12.589,0,0,1,2.3,1.137,14.075,14.075,0,0,1,1.974,1.506l-1.1,1.755a1.009,1.009,0,0,1-.878.538,1.413,1.413,0,0,1-.7-.219q-.5-.279-1.117-.678a9.565,9.565,0,0,0-1.506-.768,12.124,12.124,0,0,0-2.094-.628,13.786,13.786,0,0,0-2.862-.259,11.589,11.589,0,0,0-4.368.788A9.239,9.239,0,0,0,9.1-30.557a9.974,9.974,0,0,0-2.114,3.55,13.947,13.947,0,0,0-.738,4.677,14.172,14.172,0,0,0,.768,4.836,10.213,10.213,0,0,0,2.164,3.6,9.339,9.339,0,0,0,3.311,2.254A11.134,11.134,0,0,0,16.714-10.863Zm43.6-9.114V-8.051H56.463V-36.63H64.54a17.649,17.649,0,0,1,4.687.548A8.945,8.945,0,0,1,72.488-34.5a6.349,6.349,0,0,1,1.9,2.5,8.365,8.365,0,0,1,.618,3.281,8.225,8.225,0,0,1-.479,2.832,7.48,7.48,0,0,1-1.386,2.363,8.293,8.293,0,0,1-2.214,1.785,10.959,10.959,0,0,1-2.962,1.117A4.086,4.086,0,0,1,69.247-19.4L77.583-8.051h-3.43A1.692,1.692,0,0,1,72.6-8.868L65.178-19.08a2.161,2.161,0,0,0-.738-.688,2.661,2.661,0,0,0-1.2-.209Zm0-2.812H64.36a9.857,9.857,0,0,0,2.982-.409A6.067,6.067,0,0,0,69.5-24.355,4.8,4.8,0,0,0,70.8-26.14a5.829,5.829,0,0,0,.439-2.294,4.555,4.555,0,0,0-1.685-3.849,8.145,8.145,0,0,0-5.016-1.3H60.312Zm69.884.459a16.5,16.5,0,0,1-1.017,5.893,13.5,13.5,0,0,1-2.872,4.617,12.835,12.835,0,0,1-4.457,3A15.032,15.032,0,0,1,116.1-7.752a14.956,14.956,0,0,1-5.744-1.067,12.857,12.857,0,0,1-4.448-3,13.5,13.5,0,0,1-2.872-4.617,16.5,16.5,0,0,1-1.017-5.893,16.5,16.5,0,0,1,1.017-5.893,13.6,13.6,0,0,1,2.872-4.627,12.906,12.906,0,0,1,4.448-3.022A14.835,14.835,0,0,1,116.1-36.95a14.909,14.909,0,0,1,5.754,1.077,12.884,12.884,0,0,1,4.457,3.022,13.6,13.6,0,0,1,2.872,4.627A16.5,16.5,0,0,1,130.2-22.331Zm-3.969,0a14.524,14.524,0,0,0-.718-4.727,10,10,0,0,0-2.034-3.54,8.827,8.827,0,0,0-3.191-2.224A10.833,10.833,0,0,0,116.1-33.6a10.779,10.779,0,0,0-4.168.778,8.923,8.923,0,0,0-3.2,2.224,9.917,9.917,0,0,0-2.044,3.54,14.524,14.524,0,0,0-.718,4.727,14.434,14.434,0,0,0,.718,4.717,9.929,9.929,0,0,0,2.044,3.53,8.816,8.816,0,0,0,3.2,2.214,10.9,10.9,0,0,0,4.168.768,10.957,10.957,0,0,0,4.188-.768,8.723,8.723,0,0,0,3.191-2.214,10.011,10.011,0,0,0,2.034-3.53A14.434,14.434,0,0,0,126.227-22.331Zm28.879-14.3h3.211a1.371,1.371,0,0,1,.858.259,1.271,1.271,0,0,1,.459.658l5.9,19.864q.16.538.289,1.157t.249,1.3q.14-.678.279-1.306a10.435,10.435,0,0,1,.319-1.147l6.721-19.864a1.459,1.459,0,0,1,.469-.628,1.285,1.285,0,0,1,.848-.289h1.117a1.329,1.329,0,0,1,.848.259,1.416,1.416,0,0,1,.469.658l6.681,19.864a19.476,19.476,0,0,1,.638,2.373q.12-.658.219-1.256a8.615,8.615,0,0,1,.259-1.117l5.923-19.864a1.247,1.247,0,0,1,.449-.638,1.314,1.314,0,0,1,.848-.279h3.012l-8.915,28.58h-3.47l-7.24-21.8a12.061,12.061,0,0,1-.4-1.436q-.1.4-.189.768t-.189.668l-7.28,21.8h-3.47Zm71.24,28.58h-3.869V-36.63h3.869Z" transform="translate(59.957 63.001)" fill="#185fa5"/>
    <g id="GROWI_logo" transform="translate(-11.939 15.554)">
      <path d="M56.61,122.056H84.322l13.856-24H88.94l-9.237,16H61.229Z" transform="translate(-42.754 -74.056)" fill="#185fa5"/>
      <path d="M75.48,73.369l4.619-8,13.856,0,13.856,0v0l4.619,8H84.717l-4.609,7.979h-.022l-2.3-3.98Z" transform="translate(-57.005 -49.37)" fill="#70b248"/>
      <path d="M0,24,13.853,0,27.712,0H41.568l4.615,8L32.331,8H18.472L4.616,32Z" fill="#70b248"/>
      <path d="M46.954,138.741l-4.619-8-4.625,8.009,2.311,4,2.3,3.98h.022Z" transform="translate(-28.48 -98.74)" fill="#70b248"/>
    </g>
  </g>
</svg>
