<svg xmlns="http://www.w3.org/2000/svg" xmlns:xlink="http://www.w3.org/1999/xlink" width="1200" height="630" viewBox="0 0 1200 630"><defs><clipPath id="a"><rect width="1200" height="630" fill="#fff" stroke="#707070" stroke-width="1"/></clipPath><linearGradient id="b" x2="0.765" y2="1" gradientUnits="objectBoundingBox"><stop offset="0" stop-color="#35387b"/><stop offset="0.632" stop-color="#7182a3"/><stop offset="1" stop-color="#a2adb9"/></linearGradient><linearGradient id="ck" x1="0.735" y1="1.142" x2="0" gradientUnits="objectBoundingBox"><stop offset="0" stop-color="#a2b8cb"/><stop offset="0.18" stop-color="#b8c9d0"/><stop offset="0.632" stop-color="#dfe9eb"/><stop offset="1" stop-color="#f2feff"/></linearGradient></defs><g clip-path="url(#a)"><g transform="translate(-252.163 -54.151)" opacity="0.232"><path d="M34.123,188.046H28.38l-2.871-4.973L28.38,178.1h5.743l2.871,4.973Z" transform="translate(38.819 65.776)" fill="url(#b)" style="mix-blend-mode:multiply;isolation:isolate"/><path d="M101.075,188.853H95.016l-3.029-5.247,3.029-5.247h6.058l3.029,5.247Z" transform="translate(110.415 64.496)" fill="url(#b)" style="mix-blend-mode:multiply;isolation:isolate"/><path d="M132.094,276.714H95.881L77.774,245.352,95.881,213.99h36.213L150.2,245.352Z" transform="translate(97.875 -98.366)" fill="url(#b)" style="mix-blend-mode:multiply;isolation:isolate"/><path d="M59.918,330.361H15.126L-7.27,291.57l22.4-38.791H59.918l22.4,38.791Z" transform="translate(12.202 -235.169)" fill="url(#b)" style="mix-blend-mode:multiply;isolation:isolate"/><path d="M339.041,301.715h-5.653l-2.827-4.9,2.827-4.9h5.653l2.827,4.9Z" transform="translate(352.121 -277.455)" fill="url(#b)" style="mix-blend-mode:multiply;isolation:isolate"/><path d="M97.029,212.5H84.779l-6.125-10.609,6.125-10.609h12.25l6.125,10.609Z" transform="translate(97.566 13.125)" fill="url(#b)" style="mix-blend-mode:multiply;isolation:isolate"/><path d="M196.222,312.544H183.782l-6.22-10.774L183.782,291h12.441l6.22,10.774Z" transform="translate(195.295 -286.6)" fill="url(#b)" style="mix-blend-mode:multiply;isolation:isolate"/><path d="M276.912,257.565h-9.555l-4.777-8.275,4.777-8.275h9.555l4.778,8.275Z" transform="translate(278.888 -131.027)" fill="url(#b)" style="mix-blend-mode:multiply;isolation:isolate"/><path d="M60.565,301.776H40.25L30.093,284.183,40.25,266.591H60.565l10.157,17.593Z" transform="translate(42.542 -231.61)" fill="url(#b)" style="mix-blend-mode:multiply;isolation:isolate"/><path d="M268.708,271.926h-5.582l-2.791-4.834,2.791-4.834h5.582l2.791,4.834Z" transform="translate(276.13 -187.249)" fill="url(#b)" style="mix-blend-mode:multiply;isolation:isolate"/><path d="M169.51,204.2h-6.462l-3.231-5.6,3.231-5.6h6.462l3.231,5.6Z" transform="translate(177.244 18.172)" fill="url(#b)" style="mix-blend-mode:multiply;isolation:isolate"/><path d="M258.761,325.2H226.216l-16.272-28.184,16.272-28.184h32.544l16.272,28.184Z" transform="translate(229.74 -259.09)" fill="url(#b)" style="mix-blend-mode:multiply;isolation:isolate"/><path d="M191.454,336.163h-47l-23.5-40.7,23.5-40.7h47l23.5,40.7Z" transform="translate(141.995 -244.556)" fill="url(#b)" style="mix-blend-mode:multiply;isolation:isolate"/><path d="M220.285,252.184h-17.5l-8.749-15.154,8.749-15.154h17.5l8.749,15.154Z" transform="translate(212.12 -88.1)" fill="url(#b)" style="mix-blend-mode:multiply;isolation:isolate"/><path d="M256.033,321.039H214.046l-20.994-36.362,20.994-36.362h41.987l20.994,36.362Z" transform="translate(214.027 -217.757)" fill="url(#b)" style="mix-blend-mode:multiply;isolation:isolate"/><path d="M56.247,251.793H48.116l-4.066-7.042,4.066-7.042h8.131l4.066,7.042Z" transform="translate(53.875 -118.529)" fill="url(#b)" style="mix-blend-mode:multiply;isolation:isolate"/><path d="M192.688,275.3H172.476L162.37,257.8l10.106-17.5h20.212l10.106,17.5Z" transform="translate(181.001 -148.454)" fill="url(#b)" style="mix-blend-mode:multiply;isolation:isolate"/><path d="M148.154,246.113H135.479l-6.338-10.977,6.338-10.977h12.675l6.338,10.977Z" transform="translate(147.474 -86.209)" fill="url(#b)" style="mix-blend-mode:multiply;isolation:isolate"/><path d="M114.112,301.189H99.479l-7.317-12.673,7.317-12.673h14.633l7.317,12.673Z" transform="translate(111.039 -247.791)" fill="url(#b)" style="mix-blend-mode:multiply;isolation:isolate"/><path d="M61.877,247.147h-45.7L-6.67,207.571,16.179,168h45.7l22.849,39.576Z" transform="translate(12.689 24.983)" fill="url(#b)" style="mix-blend-mode:multiply;isolation:isolate"/><path d="M82.865,189.9H76.239l-3.313-5.738,3.313-5.738h6.626l3.313,5.738Z" transform="translate(91.669 63.324)" fill="url(#b)" style="mix-blend-mode:multiply;isolation:isolate"/><path d="M105.109,282.884H65.3L45.4,248.41l19.9-34.475h39.808l19.9,34.475Z" transform="translate(54.969 -104.785)" fill="url(#b)" style="mix-blend-mode:multiply;isolation:isolate"/><path d="M167.2,307.718h-5.389l-2.694-4.667,2.694-4.667H167.2l2.694,4.667Z" transform="translate(176.463 -295.163)" fill="url(#b)" style="mix-blend-mode:multiply;isolation:isolate"/><path d="M144.853,265.884h-7.481l-3.74-6.479,3.74-6.479h7.481l3.741,6.479Z" transform="translate(151.528 -162.858)" fill="url(#b)" style="mix-blend-mode:multiply;isolation:isolate"/><path d="M132.216,319.044H90.3l-20.956-36.3,20.956-36.3h41.913l20.956,36.3Z" transform="translate(89.715 -212.381)" fill="url(#b)" style="mix-blend-mode:multiply;isolation:isolate"/><path d="M204.723,290.267h-6.106l-3.053-5.288,3.053-5.288h6.106l3.053,5.288Z" transform="translate(212.416 -243.84)" fill="url(#b)" style="mix-blend-mode:multiply;isolation:isolate"/><path d="M17.705,268.52H6.8l-5.45-9.44,5.45-9.44h10.9l5.45,9.44Z" transform="translate(19.205 -159.327)" fill="url(#b)" style="mix-blend-mode:multiply;isolation:isolate"/><path d="M201.149,301.095H178.68l-11.234-19.459,11.234-19.459h22.469l11.235,19.459Z" transform="translate(186.257 -218.575)" fill="url(#b)" style="mix-blend-mode:multiply;isolation:isolate"/><path d="M286.686,312.969H264.969L254.11,294.161l10.859-18.808h21.717l10.859,18.808Z" transform="translate(272.239 -258.681)" fill="url(#b)" style="mix-blend-mode:multiply;isolation:isolate"/><path d="M269.508,307.684h-5.415l-2.707-4.69,2.707-4.69h5.415l2.708,4.69Z" transform="translate(277.141 -294.984)" fill="url(#b)" style="mix-blend-mode:multiply;isolation:isolate"/><path d="M307.76,272.049h-8.851l-4.426-7.666,4.426-7.666h8.851l4.426,7.666Z" transform="translate(310.251 -176.735)" fill="url(#b)" style="mix-blend-mode:multiply;isolation:isolate"/><path d="M53.7,242.824H38.9L31.494,230l7.4-12.82H53.7L61.1,230Z" transform="translate(43.679 -69.135)" fill="url(#b)" style="mix-blend-mode:multiply;isolation:isolate"/><path d="M19.036,205.721H.3l-9.37-16.229L.3,173.263H19.036l9.37,16.229Z" transform="translate(10.738 56.863)" fill="url(#b)" style="mix-blend-mode:multiply;isolation:isolate"/><path d="M72.035,289.59h-10.3l-5.151-8.921,5.151-8.922h10.3l5.151,8.922Z" transform="translate(75.694 -224.43)" fill="url(#b)" style="mix-blend-mode:multiply;isolation:isolate"/><g transform="translate(467.367 92.985)" style="mix-blend-mode:multiply;isolation:isolate"><path d="M239.944,265.872l4.664-8.08-4.664-8.08h-9.33l-4.664,8.08,4.664,8.08h9.33m.35.605h-10.03l-5.016-8.685,5.016-8.687h10.03l5.014,8.687-5.014,8.685Z" transform="translate(-225.249 -249.105)" fill="url(#b)"/></g><g transform="translate(240.533 100.609)" style="mix-blend-mode:multiply;isolation:isolate"><path d="M129.454,263.977l5.86-10.149-5.86-10.149h-11.72l-5.86,10.149,5.86,10.149h11.72m.44.763h-12.6L111,253.828l6.3-10.912h12.6l6.3,10.912-6.3,10.912Z" transform="translate(-110.995 -242.916)" fill="url(#b)"/></g><g transform="translate(454.55 22.597)" style="mix-blend-mode:multiply;isolation:isolate"><path d="M286.784,327.279l22.378-38.761-22.378-38.761H242.026l-22.378,38.761,22.378,38.761h44.759m1.68,2.91H240.346l-24.058-41.671,24.058-41.669h48.118l24.058,41.669-24.058,41.671Z" transform="translate(-216.288 -246.849)" fill="url(#b)"/></g><g transform="translate(247.942 15.435)" style="mix-blend-mode:multiply;isolation:isolate"><path d="M143.395,310.918l9.176-15.9-9.176-15.9H125.039l-9.176,15.9,9.176,15.9h18.356m.689,1.192H124.35l-9.866-17.087,9.866-17.089h19.733l9.866,17.089-9.866,17.087Z" transform="translate(-114.484 -277.934)" fill="url(#b)"/></g><g transform="translate(87.14 205.152)" style="mix-blend-mode:multiply;isolation:isolate"><path d="M53.112,209.8l4.767-8.256-4.767-8.256H43.579l-4.766,8.256,4.766,8.256h9.533m.359.62H43.222L38.1,201.548l5.124-8.875H53.471l5.124,8.875-5.124,8.875Z" transform="translate(-38.098 -192.673)" fill="url(#b)"/></g><g transform="translate(248.807 60.741)" style="mix-blend-mode:multiply;isolation:isolate"><path d="M128.242,281.166l4.115-7.127-4.115-7.128h-8.23l-4.115,7.128,4.115,7.127h8.23m.31.536H119.7l-4.425-7.663,4.425-7.663h8.848l4.423,7.663-4.423,7.663Z" transform="translate(-115.279 -266.376)" fill="url(#b)"/></g><g transform="translate(235.751 238.229)" style="mix-blend-mode:multiply;isolation:isolate"><path d="M117.647,191.032l2.81-4.871-2.81-4.869h-5.625l-2.81,4.869,2.81,4.871h5.625m.21.364h-6.045l-3.022-5.235,3.022-5.235h6.045l3.022,5.235-3.022,5.235Z" transform="translate(-108.79 -180.926)" fill="url(#b)"/></g><g transform="translate(69.695 54.177)" style="mix-blend-mode:multiply;isolation:isolate"><path d="M89.36,308.641l19.329-33.479L89.36,241.683H50.7L31.374,275.162,50.7,308.641H89.36m1.451,2.513H49.251l-20.78-35.992,20.78-35.992h41.56l20.78,35.992-20.78,35.992Z" transform="translate(-28.471 -239.17)" fill="url(#b)"/></g><g transform="translate(157.459 92.725)" style="mix-blend-mode:multiply;isolation:isolate"><path d="M77.473,262.651l2.577-4.465-2.577-4.465H72.317l-2.578,4.465,2.578,4.465h5.155m.194.335H72.124l-2.771-4.8,2.771-4.8h5.543l2.771,4.8-2.771,4.8Z" transform="translate(-69.353 -253.386)" fill="url(#b)"/></g><g transform="translate(498.598 12.333)" style="mix-blend-mode:multiply;isolation:isolate"><path d="M251.94,303.783l3.428-5.938-3.428-5.938h-6.857l-3.428,5.938,3.428,5.938h6.857m.257.446h-7.371l-3.686-6.384,3.686-6.384H252.2l3.686,6.384-3.686,6.384Z" transform="translate(-241.14 -291.461)" fill="url(#b)"/></g><g transform="translate(564.801 26.158)" style="mix-blend-mode:multiply;isolation:isolate"><path d="M317.34,312.683l14.17-24.544L317.34,263.6H289l-14.17,24.542L289,312.683h28.34m1.064,1.843H287.936L272.7,288.139l15.236-26.385H318.4l15.234,26.385L318.4,314.525Z" transform="translate(-272.701 -261.754)" fill="url(#b)"/></g><g transform="translate(10.934 89.118)" style="mix-blend-mode:multiply;isolation:isolate"><path d="M64.882,295.769l21.853-37.849L64.882,220.068H21.176L-.676,257.919l21.853,37.849H64.882m1.64,2.843H19.535L-3.958,257.919l23.493-40.692H66.522l23.495,40.692L66.522,298.612Z" transform="translate(3.958 -217.227)" fill="url(#b)"/></g><g transform="translate(166.101 27.575)" style="mix-blend-mode:multiply;isolation:isolate"><path d="M81.624,293.96l2.511-4.351-2.511-4.351H76.6l-2.511,4.351L76.6,293.96h5.025m.188.326h-5.4l-2.7-4.677,2.7-4.677h5.4l2.7,4.677-2.7,4.677Z" transform="translate(-73.711 -284.933)" fill="url(#b)"/></g><g transform="translate(58.84 176.686)" style="mix-blend-mode:multiply;isolation:isolate"><path d="M31.776,221.049l2.952-5.112-2.952-5.112h-5.9l-2.952,5.112,2.952,5.112h5.9m.223.384H25.653l-3.173-5.5,3.173-5.494H32l3.173,5.494L32,221.433Z" transform="translate(-22.48 -210.443)" fill="url(#b)"/></g><g transform="translate(438.654 119.533)" style="mix-blend-mode:multiply;isolation:isolate"><path d="M220.806,250.046l3.119-5.4-3.119-5.4h-6.235l-3.117,5.4,3.117,5.4h6.235m.234.406h-6.7l-3.352-5.806,3.352-5.806h6.7l3.352,5.806-3.352,5.806Z" transform="translate(-210.985 -238.84)" fill="url(#b)"/></g><g transform="translate(329.954 23.915)" style="mix-blend-mode:multiply;isolation:isolate"><path d="M173.079,300.45l5.416-9.383-5.416-9.383H162.245l-5.416,9.383,5.416,9.383h10.834m.406.7H161.839l-5.824-10.087,5.824-10.086h11.646l5.824,10.086-5.824,10.087Z" transform="translate(-156.015 -280.982)" fill="url(#b)"/></g><g transform="translate(0 129.295)" style="mix-blend-mode:multiply;isolation:isolate"><path d="M8.592,249.685l5.9-10.218-5.9-10.218h-11.8l-5.9,10.218,5.9,10.218h11.8m.444.767H-3.65l-6.342-10.984,6.342-10.984H9.036l6.342,10.984L9.036,250.452Z" transform="translate(9.992 -228.483)" fill="url(#b)"/></g><g transform="translate(31.62 7.915)" style="mix-blend-mode:multiply;isolation:isolate"><path d="M17.071,305.642l3.051-5.286-3.051-5.286h-6.1l-3.051,5.286,3.051,5.286h6.1m.23.395H10.74l-3.282-5.681,3.282-5.682H17.3l3.28,5.682-3.28,5.681Z" transform="translate(-7.458 -294.674)" fill="url(#b)"/></g><g transform="translate(303.781 104.898)" style="mix-blend-mode:multiply;isolation:isolate"><path d="M203.418,284.445l19.649-34.037-19.649-34.035h-39.3l-19.651,34.035,19.651,34.037h39.3M204.893,287H162.642l-21.126-36.592,21.126-36.59h42.251l21.126,36.59L204.893,287Z" transform="translate(-141.516 -213.818)" fill="url(#b)"/></g><g transform="translate(716.31 4.293)" style="mix-blend-mode:multiply;isolation:isolate"><path d="M364.732,310.572l4.956-8.585-4.956-8.583h-9.912l-4.956,8.583,4.956,8.585h9.912m.371.643H354.447l-5.327-9.229,5.327-9.228H365.1l5.329,9.228-5.329,9.229Z" transform="translate(-349.12 -292.758)" fill="url(#b)"/></g><g transform="translate(231.778 175.107)" style="mix-blend-mode:multiply;isolation:isolate"><path d="M146.433,238.408l12.8-22.168-12.8-22.168h-25.6l-12.8,22.168,12.8,22.168h25.6m.962,1.663H119.875l-13.759-23.832,13.759-23.833H147.4l13.759,23.833L147.4,240.071Z" transform="translate(-106.116 -192.406)" fill="url(#b)"/></g><g transform="translate(324.774 127.685)" style="mix-blend-mode:multiply;isolation:isolate"><path d="M162.739,245.578l2.888-5-2.888-5H156.96l-2.89,5,2.89,5h5.779m.216.375h-6.212l-3.106-5.38,3.106-5.38h6.212l3.106,5.38-3.106,5.38Z" transform="translate(-153.637 -235.193)" fill="url(#b)"/></g><g transform="translate(226.258 0)" style="mix-blend-mode:multiply;isolation:isolate"><path d="M123.706,315.045l6.324-10.954-6.324-10.954H111.058l-6.324,10.954,6.324,10.954h12.648m.475.823h-13.6l-6.8-11.776,6.8-11.776h13.6l6.8,11.776-6.8,11.776Z" transform="translate(-103.785 -292.315)" fill="url(#b)"/></g><g transform="translate(407.642 87.08)" style="mix-blend-mode:multiply;isolation:isolate"><path d="M205.895,266.728l3.35-5.806-3.35-5.8h-6.7l-3.35,5.8,3.35,5.806h6.7m.25.435h-7.2l-3.6-6.241,3.6-6.241h7.2l3.6,6.241-3.6,6.241Z" transform="translate(-195.336 -254.682)" fill="url(#b)"/></g><g transform="translate(654.611 55.522)" style="mix-blend-mode:multiply;isolation:isolate"><path d="M323.746,281.638l2.754-4.771-2.754-4.771h-5.509l-2.754,4.771,2.754,4.771h5.509m.207.357h-5.922l-2.961-5.128,2.961-5.128h5.922l2.961,5.128L323.952,282Z" transform="translate(-315.07 -271.739)" fill="url(#b)"/></g><g transform="translate(336.738 253.066)" style="mix-blend-mode:multiply;isolation:isolate"><circle cx="0.596" cy="0.596" r="0.596" transform="translate(0 0)" fill="url(#b)"/></g><g transform="translate(275.593 250.342)" style="mix-blend-mode:multiply;isolation:isolate"><path d="M132.475,179.839a1.73,1.73,0,1,0-1.73,1.73A1.73,1.73,0,0,0,132.475,179.839Z" transform="translate(-129.014 -178.109)" fill="url(#b)"/></g><g transform="translate(75.68 16.188)" style="mix-blend-mode:multiply;isolation:isolate"><circle cx="2.286" cy="2.286" r="2.286" transform="translate(0 0)" fill="url(#b)"/></g><g transform="translate(709.412 59.865)" style="mix-blend-mode:multiply;isolation:isolate"><path d="M346.656,275.05a.671.671,0,1,0-.67.67A.672.672,0,0,0,346.656,275.05Z" transform="translate(-345.313 -274.378)" fill="url(#b)"/></g><g transform="translate(508.908 115.976)" style="mix-blend-mode:multiply;isolation:isolate"><path d="M254.367,246.549a3.9,3.9,0,1,0-3.9,3.9A3.905,3.905,0,0,0,254.367,246.549Z" transform="translate(-246.557 -242.644)" fill="url(#b)"/></g><g transform="translate(396.238 128.565)" style="mix-blend-mode:multiply;isolation:isolate"><circle cx="0.965" cy="0.965" r="0.965" transform="translate(0 0)" fill="url(#b)"/></g><g transform="translate(641.608 30.92)" style="mix-blend-mode:multiply;isolation:isolate"><path d="M309.017,288.191a.562.562,0,1,0-.562.562A.562.562,0,0,0,309.017,288.191Z" transform="translate(-307.894 -287.629)" fill="url(#b)"/></g><g transform="translate(17.515 38.21)" style="mix-blend-mode:multiply;isolation:isolate"><path d="M6.279,283.883a3.3,3.3,0,1,0-3.3,3.3A3.3,3.3,0,0,0,6.279,283.883Z" transform="translate(0.326 -280.58)" fill="url(#b)"/></g><g transform="translate(467.521 6.703)" style="mix-blend-mode:multiply;isolation:isolate"><path d="M227.841,301.511a.988.988,0,1,0-.989.989A.988.988,0,0,0,227.841,301.511Z" transform="translate(-225.864 -300.522)" fill="url(#b)"/></g><g transform="translate(642.172 4.987)" style="mix-blend-mode:multiply;isolation:isolate"><path d="M311.148,302.408a1.471,1.471,0,1,0-1.471,1.471A1.471,1.471,0,0,0,311.148,302.408Z" transform="translate(-308.205 -300.937)" fill="url(#b)"/></g><g transform="translate(120.513 181.729)" style="mix-blend-mode:multiply;isolation:isolate"><path d="M57.565,213.592a.525.525,0,1,0-.524.524A.525.525,0,0,0,57.565,213.592Z" transform="translate(-56.516 -213.066)" fill="url(#b)"/></g><g transform="translate(69.418 92.4)" style="mix-blend-mode:multiply;isolation:isolate"><path d="M34.571,258.466a3.127,3.127,0,1,0-3.126,3.126A3.125,3.125,0,0,0,34.571,258.466Z" transform="translate(-28.318 -255.34)" fill="url(#b)"/></g><g transform="translate(391.973 162.078)" style="mix-blend-mode:multiply;isolation:isolate"><circle cx="1.374" cy="1.374" r="1.374" transform="translate(0 0)" fill="url(#b)"/></g><g transform="translate(120.912 8.522)" style="mix-blend-mode:multiply;isolation:isolate"><circle cx="4.099" cy="4.099" r="4.099" transform="translate(0)" fill="url(#b)"/></g><g transform="translate(294.566 10.702)" style="mix-blend-mode:multiply;isolation:isolate"><path d="M140.218,299.323a.8.8,0,1,0-.8.8A.8.8,0,0,0,140.218,299.323Z" transform="translate(-138.618 -298.524)" fill="url(#b)"/></g><g transform="translate(7.152 13.646)" style="mix-blend-mode:multiply;isolation:isolate"><path d="M-3.479,297.649a1.283,1.283,0,0,0-1.283-1.283,1.283,1.283,0,0,0-1.283,1.283,1.283,1.283,0,0,0,1.283,1.283A1.283,1.283,0,0,0-3.479,297.649Z" transform="translate(6.045 -296.366)" fill="url(#b)"/></g><g transform="translate(8.134 80.63)" style="mix-blend-mode:multiply;isolation:isolate"><path d="M-4.485,264.588a.51.51,0,0,0-.509-.509.51.51,0,0,0-.509.509.51.51,0,0,0,.509.509A.51.51,0,0,0-4.485,264.588Z" transform="translate(5.503 -264.079)" fill="url(#b)"/></g><g transform="translate(34.942 162.651)" style="mix-blend-mode:multiply;isolation:isolate"><circle cx="1.203" cy="1.203" r="1.203" transform="translate(0 0)" fill="url(#b)"/></g><g transform="translate(590.253 122.658)" style="mix-blend-mode:multiply;isolation:isolate"><path d="M291.988,243.289a2.146,2.146,0,1,0-2.147,2.145A2.147,2.147,0,0,0,291.988,243.289Z" transform="translate(-287.695 -241.144)" fill="url(#b)"/></g><g transform="translate(120.771 239.043)" style="mix-blend-mode:multiply;isolation:isolate"><path d="M61.085,186.024a2.213,2.213,0,1,0-2.212,2.214A2.212,2.212,0,0,0,61.085,186.024Z" transform="translate(-56.658 -183.812)" fill="url(#b)"/></g><g transform="translate(332.024 89.008)" style="mix-blend-mode:multiply;isolation:isolate"><circle cx="0.567" cy="0.567" r="0.567" transform="translate(0 0)" fill="url(#b)"/></g><g transform="translate(211.759 177.251)" style="mix-blend-mode:multiply;isolation:isolate"><path d="M98.19,215.844a.672.672,0,1,0-.672.67A.672.672,0,0,0,98.19,215.844Z" transform="translate(-96.845 -215.172)" fill="url(#b)"/></g><g transform="translate(194.354 7.481)" style="mix-blend-mode:multiply;isolation:isolate"><circle cx="2.639" cy="2.639" r="2.639" transform="translate(0 0)" fill="url(#b)"/></g><g transform="translate(764.807 9.206)" style="mix-blend-mode:multiply;isolation:isolate"><circle cx="0.516" cy="0.516" r="0.516" transform="translate(0 0)" fill="url(#b)"/></g><g transform="translate(299.744 232.805)" style="mix-blend-mode:multiply;isolation:isolate"><circle cx="3.149" cy="3.149" r="3.149" transform="translate(0 0)" fill="url(#b)"/></g><g transform="translate(11.907 197.362)" style="mix-blend-mode:multiply;isolation:isolate"><path d="M3.456,205.609A3.438,3.438,0,0,0,.018,202.17a3.44,3.44,0,0,0-3.439,3.439,3.438,3.438,0,0,0,3.439,3.437A3.437,3.437,0,0,0,3.456,205.609Z" transform="translate(3.421 -202.17)" fill="url(#b)"/></g><g transform="translate(434.277 15.098)" style="mix-blend-mode:multiply;isolation:isolate"><circle cx="0.747" cy="0.747" r="0.747" transform="translate(0 0)" fill="url(#b)"/></g><g transform="translate(590.068 20.525)" style="mix-blend-mode:multiply;isolation:isolate"><circle cx="0.533" cy="0.533" r="0.533" transform="translate(0 0)" fill="url(#b)"/></g></g><g transform="translate(675.096 348.497)" opacity="0.482"><path d="M387.727,7.431h-7.816L376,.662l3.908-6.769h7.816L391.636.662Z" transform="translate(130.54 267.834)" fill="url(#ck)" style="mix-blend-mode:multiply;isolation:isolate"/><path d="M450.92,90.949H437.9l-6.511-11.278L437.9,68.392H450.92l6.511,11.278Z" transform="translate(170.921 54.914)" fill="url(#ck)" style="mix-blend-mode:multiply;isolation:isolate"/><path d="M502.925,112.329H471.4l-15.761-27.3,15.761-27.3h31.521l15.761,27.3Z" transform="translate(191.632 49.958)" fill="url(#ck)" style="mix-blend-mode:multiply;isolation:isolate"/><path d="M471.3,30.455H460.96L455.788,21.5l5.171-8.957H471.3l5.171,8.957Z" transform="translate(187.954 216)" fill="url(#ck)" style="mix-blend-mode:multiply;isolation:isolate"/><path d="M223.4,10.617h-9.689l-4.845-8.391,4.845-8.391H223.4l4.845,8.391Z" transform="translate(11.258 264.739)" fill="url(#ck)" style="mix-blend-mode:multiply;isolation:isolate"/><path d="M384.84,110.458H338.785L315.757,70.574l23.027-39.885H384.84l23.027,39.885Z" transform="translate(91.938 98.081)" fill="url(#ck)" style="mix-blend-mode:multiply;isolation:isolate"/><path d="M366.583,11.97h-9.271l-4.636-8.029,4.636-8.029h9.271l4.635,8.029Z" transform="translate(114.053 260.174)" fill="url(#ck)" style="mix-blend-mode:multiply;isolation:isolate"/><path d="M572.832,75.673h-5.519l-2.76-4.78,2.76-4.78h5.519l2.76,4.78Z" transform="translate(266.987 74.864)" fill="url(#ck)" style="mix-blend-mode:multiply;isolation:isolate"/><path d="M151.2,25.1h-6.568l-3.284-5.688,3.284-5.688H151.2l3.284,5.688Z" transform="translate(-47.378 219.522)" fill="url(#ck)" style="mix-blend-mode:multiply;isolation:isolate"/><path d="M393.279,26.672H386.84L383.621,21.1l3.219-5.576h6.439L396.5,21.1Z" transform="translate(135.797 215.182)" fill="url(#ck)" style="mix-blend-mode:multiply;isolation:isolate"/><path d="M314.782,77.482H288.025L274.646,54.31l13.379-23.172h26.757L328.161,54.31Z" transform="translate(59.855 131.862)" fill="url(#ck)" style="mix-blend-mode:multiply;isolation:isolate"/><path d="M502.839,178.5H463.368L443.633,144.32l19.736-34.183h39.471l19.735,34.183Z" transform="translate(184.406 -110.137)" fill="url(#ck)" style="mix-blend-mode:multiply;isolation:isolate"/><path d="M546.919,134.762h-29.17L503.164,109.5l14.585-25.262h29.17L561.5,109.5Z" transform="translate(233.535 -18.625)" fill="url(#ck)" style="mix-blend-mode:multiply;isolation:isolate"/><path d="M515.711,4.261h-6.118l-3.059-5.3,3.059-5.3h6.118l3.059,5.3Z" transform="translate(235.372 271.356)" fill="url(#ck)" style="mix-blend-mode:multiply;isolation:isolate"/><path d="M455.448,131.466H413.785L392.954,95.386l20.831-36.081h41.662l20.831,36.081Z" transform="translate(147.793 26.643)" fill="url(#ck)" style="mix-blend-mode:multiply;isolation:isolate"/><path d="M530.725,136.471h-9.394l-4.7-8.135,4.7-8.135h9.394l4.7,8.135Z" transform="translate(240.875 -83.653)" fill="url(#ck)" style="mix-blend-mode:multiply;isolation:isolate"/><path d="M523.172,107.795H479.647L457.885,70.1l21.762-37.694h43.525L544.935,70.1Z" transform="translate(208.861 97.926)" fill="url(#ck)" style="mix-blend-mode:multiply;isolation:isolate"/><path d="M560.839,128.079H517.657l-21.591-37.4,21.591-37.4h43.182l21.591,37.4Z" transform="translate(229.667 40.511)" fill="url(#ck)" style="mix-blend-mode:multiply;isolation:isolate"/><path d="M475.8,90.091h-24l-12-20.782,12-20.782h24l12,20.782Z" transform="translate(178.809 89.124)" fill="url(#ck)" style="mix-blend-mode:multiply;isolation:isolate"/><path d="M435.89,49.4H412.678L401.072,29.3,412.678,9.2H435.89L447.5,29.3Z" transform="translate(150.727 202.224)" fill="url(#ck)" style="mix-blend-mode:multiply;isolation:isolate"/><g transform="translate(699.544 28.67)" style="mix-blend-mode:multiply;isolation:isolate"><path d="M532.5,155.889l16.948-29.355L532.5,97.179h-33.9L481.66,126.534l16.948,29.355h33.9m1.273,2.2H497.335l-18.221-31.56,18.221-31.558h36.442L552,126.534l-18.219,31.56Z" transform="translate(-479.114 -94.976)" fill="url(#ck)"/></g><g transform="translate(687.376 72.614)" style="mix-blend-mode:multiply;isolation:isolate"><path d="M539.9,139.592l21.8-37.753L539.9,64.086H496.309l-21.8,37.753,21.8,37.753H539.9m1.636,2.835H494.671l-23.433-40.588,23.433-40.588H541.54l23.434,40.588L541.54,142.427Z" transform="translate(-471.238 -61.251)" fill="url(#ck)"/></g><g transform="translate(792.058 110.614)" style="mix-blend-mode:multiply;isolation:isolate"><path d="M550.423,94.38l3.626-6.282-3.626-6.282h-7.255L539.542,88.1l3.626,6.282h7.255m.272.471h-7.8L539,88.1l3.9-6.754h7.8l3.9,6.754-3.9,6.753Z" transform="translate(-538.997 -81.344)" fill="url(#ck)"/></g><g transform="translate(263.091 249.098)" style="mix-blend-mode:multiply;isolation:isolate"><path d="M253.259,18.152l6.184-10.716L253.259-3.277H240.885L234.7,7.437l6.186,10.716h12.373m.463.8h-13.3L233.771,7.437l6.651-11.519h13.3l6.651,11.519-6.651,11.519Z" transform="translate(-233.771 4.082)" fill="url(#ck)"/></g><g transform="translate(205.605 234.469)" style="mix-blend-mode:multiply;isolation:isolate"><path d="M208.685,23.364l2.589-4.485-2.589-4.485h-5.179l-2.589,4.485,2.589,4.485h5.179m.195.337h-5.568l-2.784-4.822,2.784-4.822h5.568l2.784,4.822L208.88,23.7Z" transform="translate(-200.528 -14.057)" fill="url(#ck)"/></g><g transform="translate(691.026 211.235)" style="mix-blend-mode:multiply;isolation:isolate"><path d="M530.65,56.773,548.76,25.4,530.65-5.964H494.43L476.32,25.4l18.11,31.368H530.65m1.36,2.354H493.07L473.6,25.4,493.07-8.318h38.94L551.479,25.4,532.01,59.127Z" transform="translate(-473.601 8.318)" fill="url(#ck)"/></g><g transform="translate(0 256.227)" style="mix-blend-mode:multiply;isolation:isolate"><path d="M89.525,9.6l2.858-4.948L89.525-.3H83.81l-2.857,4.95L83.81,9.6h5.715m.215.372H83.6L80.524,4.649,83.6-.672h6.144l3.073,5.321L89.739,9.969Z" transform="translate(-80.524 0.672)" fill="url(#ck)"/></g><g transform="translate(603.222 215.685)" style="mix-blend-mode:multiply;isolation:isolate"><path d="M442.517,32.689l3.184-5.515-3.184-5.515h-6.368l-3.184,5.515,3.184,5.515h6.368m.24.414h-6.847l-3.422-5.929,3.422-5.929h6.847l3.424,5.929L442.756,33.1Z" transform="translate(-432.487 -21.244)" fill="url(#ck)"/></g><g transform="translate(786.081 259.151)" style="mix-blend-mode:multiply;isolation:isolate"><path d="M545.709,8.3l3.359-5.818-3.359-5.818h-6.717l-3.359,5.818L538.992,8.3h6.717m.252.436H538.74l-3.612-6.254,3.612-6.255h7.221l3.612,6.255-3.612,6.254Z" transform="translate(-535.128 3.774)" fill="url(#ck)"/></g><g transform="translate(427.211 193.4)" style="mix-blend-mode:multiply;isolation:isolate"><path d="M343.511,47.32l4.409-7.638-4.409-7.638h-8.82l-4.411,7.638,4.411,7.638h8.82m.331.575H334.36l-4.741-8.213,4.741-8.211h9.481l4.741,8.211L343.842,47.9Z" transform="translate(-329.619 -31.471)" fill="url(#ck)"/></g><g transform="translate(740.008 180.309)" style="mix-blend-mode:multiply;isolation:isolate"><path d="M521.231,55.8l5.055-8.757-5.055-8.755h-10.11l-5.055,8.755,5.055,8.757h10.11m.38.657h-10.87l-5.435-9.413,5.435-9.413h10.87l5.434,9.413-5.434,9.413Z" transform="translate(-505.306 -37.627)" fill="url(#ck)"/></g><g transform="translate(847.428 108.463)" style="mix-blend-mode:multiply;isolation:isolate"><path d="M586.439,95.7l3.683-6.379-3.683-6.379h-7.366l-3.683,6.379,3.683,6.379h7.366m.276.479H578.8l-3.96-6.858,3.96-6.858h7.919l3.96,6.858-3.96,6.858Z" transform="translate(-574.837 -82.465)" fill="url(#ck)"/></g><g transform="translate(253.269 215.325)" style="mix-blend-mode:multiply;isolation:isolate"><path d="M241.025,34.111l4.063-7.036-4.063-7.037H232.9l-4.063,7.037,4.063,7.036h8.125m.3.528h-8.735l-4.367-7.564,4.367-7.565h8.735l4.369,7.565-4.369,7.564Z" transform="translate(-228.227 -19.51)" fill="url(#ck)"/></g><g transform="translate(474.993 111.482)" style="mix-blend-mode:multiply;isolation:isolate"><path d="M424.934,118.674,447.324,79.9,424.934,41.116H380.156L357.767,79.9l22.389,38.779h44.778m1.681,2.912h-48.14L354.4,79.9,378.475,38.2h48.14L450.686,79.9l-24.072,41.691Z" transform="translate(-354.405 -38.204)" fill="url(#ck)"/></g><g transform="translate(625.93 69.2)" style="mix-blend-mode:multiply;isolation:isolate"><path d="M498.551,136.319l17.777-30.79-17.777-30.79H463l-17.777,30.79L463,136.319h35.553m1.335,2.311H461.663l-19.112-33.1,19.112-33.1h38.223L519,105.529l-19.111,33.1Z" transform="translate(-442.551 -72.426)" fill="url(#ck)"/></g><g transform="translate(294.207 223.287)" style="mix-blend-mode:multiply;isolation:isolate"><path d="M270.9,34.67l6.027-10.439L270.9,13.792H258.843l-6.027,10.439,6.027,10.439H270.9m.453.783H258.39l-6.479-11.222,6.479-11.222h12.959l6.479,11.222-6.479,11.222Z" transform="translate(-251.911 -13.009)" fill="url(#ck)"/></g><g transform="translate(748.315 182.296)" style="mix-blend-mode:multiply;isolation:isolate"><path d="M578.083,79.393l21.4-37.058-21.4-37.06H535.292l-21.4,37.06,21.4,37.058h42.791m1.607,2.782h-46l-23-39.84,23-39.842h46l23,39.842-23,39.84Z" transform="translate(-510.683 -2.493)" fill="url(#ck)"/></g><g transform="translate(114.672 236.309)" style="mix-blend-mode:multiply;isolation:isolate"><path d="M192.905,33.445l12.114-20.98L192.905-8.515H168.68l-12.112,20.98,12.112,20.98h24.226m.91,1.574H167.771L154.749,12.465l13.022-22.556h26.044l13.022,22.556L193.815,35.019Z" transform="translate(-154.749 10.091)" fill="url(#ck)"/></g><g transform="translate(834.642 19.952)" style="mix-blend-mode:multiply;isolation:isolate"><path d="M575.365,144.783l2.795-4.842-2.795-4.84h-5.589l-2.795,4.84,2.795,4.842h5.589m.21.363h-6.01l-3.005-5.2,3.005-5.2h6.01l3,5.2-3,5.2Z" transform="translate(-566.561 -134.736)" fill="url(#ck)"/></g><g transform="translate(825.115 96.421)" style="mix-blend-mode:multiply;isolation:isolate"><path d="M568.585,101.325l2.6-4.5-2.6-4.5h-5.2l-2.6,4.5,2.6,4.5h5.2m.195.338h-5.591l-2.795-4.842,2.795-4.842h5.591l2.795,4.842-2.795,4.842Z" transform="translate(-560.394 -91.98)" fill="url(#ck)"/></g><g transform="translate(396.051 200.756)" style="mix-blend-mode:multiply;isolation:isolate"><path d="M377.3,67.782,398.98,30.228,377.3-7.326H333.935L312.253,30.228l21.681,37.554H377.3m1.627,2.819H332.308L309,30.228l23.31-40.373h46.618l23.31,40.373L378.926,70.6Z" transform="translate(-308.998 10.145)" fill="url(#ck)"/></g><g transform="translate(517.125 74.215)" style="mix-blend-mode:multiply;isolation:isolate"><path d="M413.694,124.035l10.379-17.974L413.694,88.088H392.94l-10.377,17.974,10.377,17.974h20.755m.78,1.349H392.161l-11.156-19.322,11.156-19.324h22.313l11.156,19.324-11.156,19.322Z" transform="translate(-381.005 -86.738)" fill="url(#ck)"/></g><g transform="translate(474.598 208.431)" style="mix-blend-mode:multiply;isolation:isolate"><path d="M369.216,37.709l3.765-6.524-3.765-6.524h-7.535l-3.767,6.524,3.767,6.524h7.535m.281.49h-8.1l-4.049-7.014,4.049-7.014h8.1l4.051,7.014L369.5,38.2Z" transform="translate(-357.349 -24.171)" fill="url(#ck)"/></g><g transform="translate(463.326 134.707)" style="mix-blend-mode:multiply;isolation:isolate"><path d="M380.957,88.623l9.883-17.118-9.883-17.118H361.192l-9.883,17.118,9.883,17.118h19.766m.742,1.285H360.45l-10.626-18.4L360.45,53.1H381.7l10.624,18.4L381.7,89.909Z" transform="translate(-349.824 -53.104)" fill="url(#ck)"/></g><g transform="translate(293.284 188.231)" style="mix-blend-mode:multiply;isolation:isolate"><path d="M316.761,75.4l21.27-36.84L316.761,1.722H274.223L252.954,38.561,274.223,75.4h42.538m1.6,2.765H272.627L249.761,38.561l22.866-39.6h45.731l22.866,39.6L318.359,78.167Z" transform="translate(-249.761 1.043)" fill="url(#ck)"/></g><g transform="translate(607.375 170.695)" style="mix-blend-mode:multiply;isolation:isolate"><path d="M473.995,72.308,487.048,49.7,473.995,27.086H447.886L434.832,49.7l13.053,22.61h26.109m.98,1.7H446.906L432.872,49.7,446.906,25.39h28.068L489.008,49.7,474.974,74.006Z" transform="translate(-432.872 -25.39)" fill="url(#ck)"/></g><g transform="translate(543.545 34.118)" style="mix-blend-mode:multiply;isolation:isolate"><path d="M464.8,158.94l22.507-38.98L464.8,80.979h-45.01L397.286,119.96l22.506,38.98H464.8m1.69,2.928H418.1L393.907,119.96,418.1,78.053h48.39l24.195,41.907-24.195,41.908Z" transform="translate(-393.907 -78.053)" fill="url(#ck)"/></g><g transform="translate(817.787 218.635)" style="mix-blend-mode:multiply;isolation:isolate"><path d="M567.4,31.728l3.729-6.461L567.4,18.806h-7.46l-3.731,6.461,3.731,6.461h7.46m.28.485h-8.02l-4.011-6.946,4.011-6.946h8.02l4.009,6.946-4.009,6.946Z" transform="translate(-555.651 -18.321)" fill="url(#ck)"/></g><g transform="translate(495.177 155.716)" style="mix-blend-mode:multiply;isolation:isolate"><path d="M426.189,88.975l18.879-32.7-18.879-32.7H388.433l-18.879,32.7,18.879,32.7h37.756m1.418,2.455H387.015l-20.3-35.155,20.3-35.155h40.593l20.3,35.155-20.3,35.155Z" transform="translate(-366.719 -21.121)" fill="url(#ck)"/></g><g transform="translate(330.863 207.653)" style="mix-blend-mode:multiply;isolation:isolate"><path d="M333.781,61l19.726-34.166L333.781-7.327H294.331L274.606,26.837,294.331,61h39.449m1.482,2.565H292.85L271.644,26.837,292.85-9.893h42.413l21.206,36.73L335.262,63.568Z" transform="translate(-271.644 9.893)" fill="url(#ck)"/></g><g transform="translate(327.849 268.505)" style="mix-blend-mode:multiply;isolation:isolate"><path d="M274.272-2.053a1.089,1.089,0,0,0-1.089-1.089,1.088,1.088,0,0,0-1.089,1.089,1.089,1.089,0,0,0,1.089,1.089A1.09,1.09,0,0,0,274.272-2.053Z" transform="translate(-272.094 3.142)" fill="url(#ck)"/></g><g transform="translate(498.642 109.28)" style="mix-blend-mode:multiply;isolation:isolate"><path d="M375.919,90.014a2.048,2.048,0,1,0-2.047,2.049A2.047,2.047,0,0,0,375.919,90.014Z" transform="translate(-371.823 -87.967)" fill="url(#ck)"/></g><g transform="translate(851.257 246.405)" style="mix-blend-mode:multiply;isolation:isolate"><circle cx="2.857" cy="2.857" r="2.857" transform="translate(0 0)" fill="url(#ck)"/></g><g transform="translate(94.132 271.305)" style="mix-blend-mode:multiply;isolation:isolate"><path d="M142.665-3.723a.606.606,0,0,0-.606-.606.607.607,0,0,0-.606.606.607.607,0,0,0,.606.607A.606.606,0,0,0,142.665-3.723Z" transform="translate(-141.454 4.329)" fill="url(#ck)"/></g><g transform="translate(589.686 18.378)" style="mix-blend-mode:multiply;isolation:isolate"><path d="M433.216,141.258a4.2,4.2,0,1,0-4.2,4.2A4.2,4.2,0,0,0,433.216,141.258Z" transform="translate(-424.822 -137.06)" fill="url(#ck)"/></g><g transform="translate(37.245 268.538)" style="mix-blend-mode:multiply;isolation:isolate"><path d="M108.151-2.272a1.758,1.758,0,0,0-1.76-1.758,1.758,1.758,0,0,0-1.76,1.758,1.76,1.76,0,0,0,1.76,1.76A1.76,1.76,0,0,0,108.151-2.272Z" transform="translate(-104.632 4.03)" fill="url(#ck)"/></g><g transform="translate(689.857 79.749)" style="mix-blend-mode:multiply;isolation:isolate"><path d="M485.5,107.538a.928.928,0,1,0-.929.927A.928.928,0,0,0,485.5,107.538Z" transform="translate(-483.641 -106.609)" fill="url(#ck)"/></g><g transform="translate(554.809 263.046)" style="mix-blend-mode:multiply;isolation:isolate"><path d="M405.883,1.636a.564.564,0,1,0-.564.564A.564.564,0,0,0,405.883,1.636Z" transform="translate(-404.755 -1.071)" fill="url(#ck)"/></g><g transform="translate(677.523 264.407)" style="mix-blend-mode:multiply;isolation:isolate"><circle cx="0.826" cy="0.826" r="0.826" transform="translate(0 0)" fill="url(#ck)"/></g><g transform="translate(183.486 270.792)" style="mix-blend-mode:multiply;isolation:isolate"><circle cx="1.202" cy="1.202" r="1.202" transform="translate(0 0)" fill="url(#ck)"/></g><g transform="translate(627.293 47.679)" style="mix-blend-mode:multiply;isolation:isolate"><path d="M448.194,123.368a.538.538,0,1,0-.539.539A.539.539,0,0,0,448.194,123.368Z" transform="translate(-447.117 -122.829)" fill="url(#ck)"/></g><g transform="translate(241.838 193.738)" style="mix-blend-mode:multiply;isolation:isolate"><path d="M224.3,40.9a1.233,1.233,0,1,0-1.233,1.234A1.233,1.233,0,0,0,224.3,40.9Z" transform="translate(-221.831 -39.663)" fill="url(#ck)"/></g><g transform="translate(670.17 192.536)" style="mix-blend-mode:multiply;isolation:isolate"><path d="M473.36,41.73a.6.6,0,1,0-.595.6A.6.6,0,0,0,473.36,41.73Z" transform="translate(-472.169 -41.134)" fill="url(#ck)"/></g><g transform="translate(582.923 269.903)" style="mix-blend-mode:multiply;isolation:isolate"><circle cx="2.432" cy="2.432" r="2.432" transform="translate(0 0)" fill="url(#ck)"/></g><g transform="translate(781.732 163.548)" style="mix-blend-mode:multiply;isolation:isolate"><path d="M535.607,58.434a1.647,1.647,0,1,0-1.647,1.647A1.646,1.646,0,0,0,535.607,58.434Z" transform="translate(-532.313 -56.787)" fill="url(#ck)"/></g><g transform="translate(365.084 137.881)" style="mix-blend-mode:multiply;isolation:isolate"><path d="M298.154,73.294a2.181,2.181,0,1,0-2.181,2.18A2.181,2.181,0,0,0,298.154,73.294Z" transform="translate(-293.793 -71.113)" fill="url(#ck)"/></g><g transform="translate(626.65 98.807)" style="mix-blend-mode:multiply;isolation:isolate"><path d="M448.267,96.443a.773.773,0,1,0-.774.774A.773.773,0,0,0,448.267,96.443Z" transform="translate(-446.72 -95.671)" fill="url(#ck)"/></g><g transform="translate(849.364 201.981)" style="mix-blend-mode:multiply;isolation:isolate"><path d="M578.089,36.131a1,1,0,1,0-1,1A1,1,0,0,0,578.089,36.131Z" transform="translate(-576.09 -35.131)" fill="url(#ck)"/></g><g transform="translate(59.583 250.714)" style="mix-blend-mode:multiply;isolation:isolate"><path d="M125.492,8.841a3.2,3.2,0,1,0-3.2,3.2A3.2,3.2,0,0,0,125.492,8.841Z" transform="translate(-119.091 -5.641)" fill="url(#ck)"/></g><g transform="translate(795.958 23.314)" style="mix-blend-mode:multiply;isolation:isolate"><path d="M549.553,138.115a4.016,4.016,0,1,0-4.017,4.015A4.015,4.015,0,0,0,549.553,138.115Z" transform="translate(-541.521 -134.1)" fill="url(#ck)"/></g><g transform="translate(402.012 256.057)" style="mix-blend-mode:multiply;isolation:isolate"><path d="M317.161,6.073a.859.859,0,1,0-.859.859A.859.859,0,0,0,317.161,6.073Z" transform="translate(-315.443 -5.214)" fill="url(#ck)"/></g><g transform="translate(585.567 169.497)" style="mix-blend-mode:multiply;isolation:isolate"><path d="M428.1,54.717a2.78,2.78,0,1,0-2.779,2.779A2.781,2.781,0,0,0,428.1,54.717Z" transform="translate(-422.54 -51.936)" fill="url(#ck)"/></g><g transform="translate(762.794 16.258)" style="mix-blend-mode:multiply;isolation:isolate"><path d="M521.255,143.687a.6.6,0,1,0-.6.6A.6.6,0,0,0,521.255,143.687Z" transform="translate(-520.055 -143.088)" fill="url(#ck)"/></g><g transform="translate(428.625 268.748)" style="mix-blend-mode:multiply;isolation:isolate"><path d="M337.2-2.824A3.173,3.173,0,0,0,334.022-6a3.173,3.173,0,0,0-3.173,3.173A3.174,3.174,0,0,0,334.022.35,3.174,3.174,0,0,0,337.2-2.824Z" transform="translate(-330.849 5.997)" fill="url(#ck)"/></g><g transform="translate(847.289 63.685)" style="mix-blend-mode:multiply;isolation:isolate"><path d="M575.859,117.018a.556.556,0,1,0-.556.556A.556.556,0,0,0,575.859,117.018Z" transform="translate(-574.747 -116.462)" fill="url(#ck)"/></g><g transform="translate(738.265 150.687)" style="mix-blend-mode:multiply;isolation:isolate"><path d="M507.121,65.981a1.472,1.472,0,1,0-1.472,1.472A1.472,1.472,0,0,0,507.121,65.981Z" transform="translate(-504.178 -64.509)" fill="url(#ck)"/></g><g transform="translate(546.948 131.919)" style="mix-blend-mode:multiply;isolation:isolate"><circle cx="2.859" cy="2.859" r="2.859" transform="translate(0 0)" fill="url(#ck)"/></g><g transform="translate(855.791 170.061)" style="mix-blend-mode:multiply;isolation:isolate"><path d="M581.719,54.83a.735.735,0,1,0-.734.735A.734.734,0,0,0,581.719,54.83Z" transform="translate(-580.25 -54.096)" fill="url(#ck)"/></g><g transform="translate(762.557 234.911)" style="mix-blend-mode:multiply;isolation:isolate"><circle cx="0.655" cy="0.655" r="0.655" transform="translate(0 0)" fill="url(#ck)"/></g><g transform="translate(803.877 70.696)" style="mix-blend-mode:multiply;isolation:isolate"><path d="M548.15,112.87a.752.752,0,1,0-.752.752A.752.752,0,0,0,548.15,112.87Z" transform="translate(-546.647 -112.118)" fill="url(#ck)"/></g><g transform="translate(831.603 266.468)" style="mix-blend-mode:multiply;isolation:isolate"><circle cx="1.498" cy="1.498" r="1.498" transform="translate(0 0)" fill="url(#ck)"/></g><g transform="translate(816.352 174.525)" style="mix-blend-mode:multiply;isolation:isolate"><path d="M557.447,52.088a1.363,1.363,0,1,0-1.363,1.363A1.363,1.363,0,0,0,557.447,52.088Z" transform="translate(-554.722 -50.724)" fill="url(#ck)"/></g><g transform="translate(725.752 25.242)" style="mix-blend-mode:multiply;isolation:isolate"><path d="M497.091,137.9a.507.507,0,1,0-.507.507A.507.507,0,0,0,497.091,137.9Z" transform="translate(-496.078 -137.394)" fill="url(#ck)"/></g><g transform="translate(397.642 193.383)" style="mix-blend-mode:multiply;isolation:isolate"><circle cx="2.531" cy="2.531" r="2.531" transform="translate(0 0)" fill="url(#ck)"/></g><g transform="translate(716.022 210.378)" style="mix-blend-mode:multiply;isolation:isolate"><circle cx="0.62" cy="0.62" r="0.62" transform="translate(0 0)" fill="url(#ck)"/></g><g transform="translate(619.856 264.229)" style="mix-blend-mode:multiply;isolation:isolate"><path d="M446.249.507a1.8,1.8,0,1,0-1.8,1.8A1.8,1.8,0,0,0,446.249.507Z" transform="translate(-442.657 1.29)" fill="url(#ck)"/></g></g></g></svg>